<?xml version="1.0" encoding="iso-8859-1"?>
<!-- Uploaded to: SVG Repo, www.svgrepo.com, Generator: SVG Repo Mixer Tools -->
<svg fill="#000000" height="800px" width="800px" version="1.1" id="Layer_1" xmlns="http://www.w3.org/2000/svg" xmlns:xlink="http://www.w3.org/1999/xlink" 
	 viewBox="0 0 512 512" xml:space="preserve">
<g>
	<g>
		<path d="M488.515,0c-9.172,0-16.608,7.436-16.608,16.608v9.731c0,119.051-96.856,215.907-215.907,215.907
			S40.093,145.39,40.093,26.34v-9.731C40.093,7.436,32.657,0,23.485,0S6.877,7.436,6.877,16.608v9.731
			c0,133.596,104.156,240.171,232.515,248.565v42.686c-25.397-14.658-58.489-11.15-80.188,10.55
			c-25.901,25.9-25.901,68.043,0,93.943l85.052,85.052c6.486,6.486,17.001,6.486,23.487,0l85.052-85.052
			c25.901-25.9,25.901-68.043,0-93.943c-21.698-21.698-54.79-25.207-80.188-10.55v-42.686
			c128.419-8.397,232.516-115.032,232.516-248.565v-9.731C505.123,7.436,497.687,0,488.515,0z M282.34,351.628
			c12.949-12.949,34.019-12.949,46.968,0c12.949,12.949,12.949,34.019,0,46.968L256,471.904l-73.309-73.309
			c-12.949-12.949-12.949-34.019,0-46.968c6.475-6.475,14.979-9.711,23.484-9.711c8.504,0,17.009,3.237,23.484,9.711l14.594,14.594
			c6.411,6.413,16.971,6.524,23.493,0L282.34,351.628z"/>
	</g>
</g>
</svg>